<svg xmlns="http://www.w3.org/2000/svg" version="1.1" xmlns:xlink="http://www.w3.org/1999/xlink" xmlns:svgjs="http://svgjs.dev/svgjs" width="1500" height="1500" viewBox="0 0 1500 1500"><rect width="1500" height="1500" fill="#000000"></rect><g transform="matrix(0.6666666666666666,0,0,0.6666666666666666,249.39393939393938,435.99032258064517)"><svg viewBox="0 0 396 248" data-background-color="#ffffff" preserveAspectRatio="xMidYMid meet" height="939" width="1500" xmlns="http://www.w3.org/2000/svg" xmlns:xlink="http://www.w3.org/1999/xlink"><g id="tight-bounds" transform="matrix(1,0,0,1,0.2400000000000091,0.4000000000000057)"><svg viewBox="0 0 395.52 247.2" height="247.2" width="395.52"><g><svg></svg></g><g><svg viewBox="0 0 395.52 247.2" height="247.2" width="395.52"><g transform="matrix(1,0,0,1,75.54432000000001,51.98221208845209)"><svg viewBox="0 0 244.43135999999996 143.23557582309581" height="143.23557582309581" width="244.43135999999996"><g><svg viewBox="0 0 244.43135999999996 143.23557582309581" height="143.23557582309581" width="244.43135999999996"><g><svg viewBox="0 0 244.43136 143.23557582309584" height="143.23557582309581" width="244.43135999999996"><g><svg viewBox="0 0 244.43136 143.23557582309584" height="143.23557582309584" width="244.43136"><g id="textblocktransform"><svg viewBox="0 0 244.43136 143.23557582309584" height="143.23557582309584" width="244.43136" id="textblock"><g><svg viewBox="0 0 244.43136 143.23557582309584" height="143.23557582309584" width="244.43136"><g transform="matrix(1,0,0,1,0,0)"><svg width="244.43136" viewBox="3.3 -35.55 59.61 34.94" height="143.23557582309584" data-palette-color="#ed3b43"><path d="M11.6-23.07Q13.5-23.8 15.15-23.8 16.8-23.8 17.91-23.28 19.02-22.75 20.18-22.05 21.34-21.34 21.75-21.34 22.17-21.34 24.41-22.39 26.66-23.44 28.74-23.44 30.81-23.44 32.45-22.29 34.08-21.14 34.84-19.04L34.84-19.04Q36.21-15.28 36.21-3.69L36.21-3.69Q36.21-1.29 34.73-1.29 33.25-1.29 32.67-3.36 32.08-5.42 31.51-10.55 30.93-15.67 30.35-16.89L30.35-16.89Q29.15-19.31 26.75-19.31 24.34-19.31 23.44-16.7L23.44-16.7Q22.85-14.94 22.36-8.8 21.88-2.66 21.8-2.42L21.8-2.42Q21.34-0.83 19.59-0.83 17.85-0.83 17.43-1.7 17.02-2.56 17.02-9.48 17.02-16.41 16.24-18.08 15.45-19.75 13.18-19.75L13.18-19.75Q12.08-19.75 10.73-18.82 9.38-17.9 8.73-16.33 8.08-14.77 7.74-9.8 7.4-4.83 6.93-3.23 6.47-1.64 5.1-1.64L5.1-1.64Q4.15-1.64 3.72-2.51 3.3-3.39 3.3-5.69L3.3-5.69 3.32-6.59Q3.32-7.52 3.32-8.45L3.32-8.45Q3.32-17.02 4.03-20.43L4.03-20.43Q4.44-22.41 6.18-22.41L6.18-22.41 8.86-22.02 11.6-23.07ZM45.11-35.55L45.11-35.55Q47.24-35.55 47.78-34.01L47.78-34.01Q48.07-33.18 48.07-28.16 48.07-23.14 49-23.14L49-23.14Q49.31-23.14 49.88-23.32L49.88-23.32 50.39-23.49Q51.12-23.73 51.87-23.93 52.61-24.12 54.95-24.12L54.95-24.12Q59.64-24.12 61.47-19.34L61.47-19.34Q62.91-15.67 62.91-3.61L62.91-3.61Q62.91-1.83 62.38-1.34 61.84-0.85 60.84-0.85L60.84-0.85Q59.32-0.85 58.84-3.13L58.84-3.13Q58.64-4 58.33-10.19 58.03-16.38 57.42-17.77L57.42-17.77Q56.39-20.19 53.85-20.19L53.85-20.19Q50.39-20.19 49.05-17.26L49.05-17.26Q48.26-15.63 47.87-9.61 47.48-3.59 47.34-3L47.34-3Q46.73-0.61 44.92-0.61L44.92-0.61Q43.85-0.61 43.33-1.1 42.82-1.59 42.82-2.83L42.82-2.83 42.82-4.3 42.84-5.08 42.92-8.94 42.97-11.99 43.02-13.53 43.09-18.14Q43.11-18.92 43.11-19.68L43.11-19.68 43.19-24.24Q43.19-31.96 43.47-33.75 43.75-35.55 45.11-35.55Z" opacity="1" transform="matrix(1,0,0,1,0,0)" fill="#ffffff" class="wordmark-text-0" data-fill-palette-color="primary" id="text-0"></path></svg></g></svg></g></svg></g></svg></g></svg></g></svg></g></svg></g><g><path d="M0 123.6c0-68.262 55.338-123.6 123.6-123.6 33.554 0 63.986 13.371 86.257 35.075h-9.538c-20.553-17.827-47.376-28.616-76.719-28.616-64.695 0-117.141 52.446-117.141 117.141 0 64.695 52.446 117.141 117.141 117.141 29.343 0 56.166-10.789 76.719-28.616l9.538 0c-22.271 21.704-52.703 35.075-86.257 35.075-68.262 0-123.6-55.338-123.6-123.6z" fill="#ffffff" stroke="transparent" data-fill-palette-color="tertiary"></path></g></svg></g><defs></defs></svg><rect width="395.52" height="247.2" fill="none" stroke="none" visibility="hidden"></rect></g></svg></g></svg>